<svg width="507" height="26" viewBox="0 0 507 26" fill="none" xmlns="http://www.w3.org/2000/svg">
<path d="M25.4713 24.056C25.4073 24.2693 25.2686 24.376 25.0553 24.376H22.9113C22.6766 24.376 22.5379 24.2693 22.4953 24.056L16.5113 3.256C15.4873 6.73333 14.4739 10.2 13.4713 13.656C12.4686 17.0907 11.4553 20.5573 10.4313 24.056C10.3673 24.2693 10.2286 24.376 10.0153 24.376H7.80725C7.57258 24.376 7.43392 24.2693 7.39125 24.056L0.83125 1.144C0.788583 1.03733 0.79925 0.941332 0.86325 0.855999C0.92725 0.749332 1.02325 0.695999 1.15125 0.695999H2.65525C2.95392 0.695999 3.14592 0.845332 3.23125 1.144L8.99125 21.944C9.99392 18.4453 10.9966 15.0107 11.9993 11.64C13.0019 8.248 14.0046 4.80267 15.0073 1.304C15.0499 1.09067 15.1459 0.941332 15.2953 0.855999C15.4446 0.749332 15.6153 0.695999 15.8073 0.695999H17.4713C17.8339 0.695999 18.0686 0.898666 18.1753 1.304L24.0313 21.816C25.0126 18.2747 25.9833 14.8293 26.9433 11.48C27.9033 8.13067 28.8846 4.68533 29.8873 1.144C29.9299 1.016 30.0046 0.909333 30.1113 0.823999C30.2179 0.738666 30.3353 0.695999 30.4633 0.695999H31.8073C31.9353 0.695999 32.0313 0.749332 32.0953 0.855999C32.1593 0.941332 32.1699 1.03733 32.1273 1.144L25.4713 24.056ZM58.4405 15.992C57.5445 13.7733 56.6805 11.5867 55.8485 9.432C55.0378 7.256 54.1845 5.05867 53.2885 2.84C52.3925 5.05867 51.5072 7.256 50.6325 9.432C49.7792 11.5867 48.9045 13.7733 48.0085 15.992H58.4405ZM64.0085 23.928C64.1152 24.2267 64.0192 24.376 63.7205 24.376H62.1845C62.0565 24.376 61.9392 24.3547 61.8325 24.312C61.7472 24.2693 61.6618 24.1413 61.5765 23.928L59.2085 18.04H47.1765C46.7712 19.0427 46.3765 20.024 45.9925 20.984C45.6085 21.944 45.2245 22.9253 44.8405 23.928C44.7552 24.1413 44.6592 24.2693 44.5525 24.312C44.4672 24.3547 44.3605 24.376 44.2325 24.376H42.7285C42.4298 24.376 42.3338 24.2267 42.4405 23.928L51.8485 1.016C51.9552 0.759998 52.1472 0.631998 52.4245 0.631998H54.3765C54.6538 0.631998 54.8458 0.759998 54.9525 1.016L64.0085 23.928ZM81.2105 23.928C81.2105 24.2267 81.0612 24.376 80.7625 24.376H79.3225C79.0238 24.376 78.8745 24.2267 78.8745 23.928V1.528C78.8745 1.08 78.9065 0.823999 78.9705 0.759998C79.0558 0.674665 79.3225 0.631998 79.7705 0.631998H81.2425C81.5198 0.631998 81.7012 0.663998 81.7865 0.727999C81.8932 0.770666 81.9998 0.887999 82.1065 1.08L94.1705 21.784V1.08C94.1705 0.781331 94.3198 0.631998 94.6185 0.631998H96.0265C96.3252 0.631998 96.4745 0.781331 96.4745 1.08V23.48C96.4745 23.928 96.4318 24.184 96.3465 24.248C96.2825 24.3333 96.0265 24.376 95.5785 24.376H93.6265C93.4558 24.376 93.3278 24.3547 93.2425 24.312C93.1785 24.2693 93.0932 24.1627 92.9865 23.992L81.2105 3.64V23.928ZM131.66 11.576C132.109 11.576 132.365 11.6187 132.428 11.704C132.514 11.768 132.556 12.024 132.556 12.472V22.616C132.556 22.8507 132.482 23.0533 132.333 23.224C132.204 23.3947 132.055 23.5227 131.884 23.608C130.86 23.992 129.783 24.28 128.653 24.472C127.543 24.6853 126.38 24.792 125.164 24.792C123.394 24.792 121.751 24.5147 120.236 23.96C118.743 23.4267 117.452 22.648 116.364 21.624C115.276 20.5787 114.423 19.2987 113.804 17.784C113.207 16.248 112.908 14.4987 112.908 12.536C112.908 10.744 113.186 9.10133 113.74 7.608C114.316 6.11467 115.127 4.824 116.172 3.736C117.239 2.648 118.53 1.80533 120.044 1.208C121.559 0.589332 123.266 0.279999 125.164 0.279999C126.359 0.279999 127.394 0.333332 128.268 0.439999C129.164 0.546665 130.114 0.759998 131.116 1.08C131.436 1.16533 131.565 1.37867 131.5 1.72L131.34 2.904C131.319 3.18133 131.159 3.27733 130.861 3.192C129.9 2.82933 128.983 2.59467 128.108 2.488C127.234 2.36 126.252 2.296 125.164 2.296C123.65 2.296 122.274 2.552 121.036 3.064C119.82 3.55467 118.775 4.248 117.9 5.144C117.047 6.04 116.386 7.11733 115.916 8.376C115.468 9.63467 115.244 11.0213 115.244 12.536C115.244 14.1787 115.49 15.64 115.98 16.92C116.471 18.2 117.154 19.2773 118.028 20.152C118.924 21.0053 119.97 21.656 121.164 22.104C122.38 22.552 123.714 22.776 125.164 22.776C127.532 22.776 129.218 22.488 130.22 21.912V13.592H123.788C123.49 13.592 123.34 13.4427 123.34 13.144V12.024C123.34 11.7253 123.49 11.576 123.788 11.576H131.66ZM164.041 15.992C163.145 13.7733 162.281 11.5867 161.449 9.432C160.638 7.256 159.785 5.05867 158.889 2.84C157.993 5.05867 157.107 7.256 156.233 9.432C155.379 11.5867 154.505 13.7733 153.609 15.992H164.041ZM169.609 23.928C169.715 24.2267 169.619 24.376 169.321 24.376H167.785C167.657 24.376 167.539 24.3547 167.433 24.312C167.347 24.2693 167.262 24.1413 167.177 23.928L164.809 18.04H152.777C152.371 19.0427 151.977 20.024 151.593 20.984C151.209 21.944 150.825 22.9253 150.441 23.928C150.355 24.1413 150.259 24.2693 150.153 24.312C150.067 24.3547 149.961 24.376 149.833 24.376H148.329C148.03 24.376 147.934 24.2267 148.041 23.928L157.449 1.016C157.555 0.759998 157.747 0.631998 158.025 0.631998H159.977C160.254 0.631998 160.446 0.759998 160.553 1.016L169.609 23.928ZM196.571 7.608C196.571 6.712 196.464 5.95467 196.251 5.336C196.059 4.696 195.717 4.184 195.227 3.8C194.757 3.39467 194.139 3.10667 193.371 2.936C192.603 2.76533 191.643 2.68 190.491 2.68H187.195V12.216H190.555C191.429 12.216 192.229 12.1093 192.955 11.896C193.701 11.6827 194.341 11.3733 194.875 10.968C195.408 10.5627 195.824 10.0827 196.123 9.528C196.421 8.952 196.571 8.312 196.571 7.608ZM200.378 23.928C200.421 24.0347 200.421 24.1307 200.378 24.216C200.336 24.3227 200.251 24.376 200.123 24.376H198.458C198.139 24.376 197.904 24.2267 197.755 23.928C196.795 21.9227 195.995 20.2907 195.355 19.032C194.715 17.752 194.213 16.7387 193.851 15.992C193.403 15.1173 193.061 14.4453 192.827 13.976C192.336 14.0827 191.877 14.1467 191.451 14.168C191.045 14.1893 190.523 14.2107 189.883 14.232H187.195V23.928C187.195 24.2267 187.045 24.376 186.747 24.376H185.307C185.008 24.376 184.859 24.2267 184.859 23.928V1.656C184.859 1.42133 184.859 1.24 184.859 1.112C184.88 0.983999 184.923 0.887999 184.987 0.823999C185.051 0.759999 185.147 0.727999 185.275 0.727999C185.403 0.706666 185.584 0.695999 185.819 0.695999H191.867C193.083 0.695999 194.128 0.866666 195.003 1.208C195.899 1.528 196.635 1.98667 197.211 2.584C197.808 3.18133 198.245 3.90667 198.523 4.76C198.821 5.61333 198.971 6.56267 198.971 7.608C198.971 8.248 198.853 8.856 198.619 9.432C198.405 10.008 198.106 10.5413 197.722 11.032C197.339 11.5227 196.891 11.9707 196.379 12.376C195.888 12.76 195.376 13.08 194.843 13.336L200.378 23.928ZM218.013 23.928C218.013 24.2267 217.863 24.376 217.565 24.376H216.029C215.73 24.376 215.581 24.2267 215.581 23.928V1.144C215.581 0.845332 215.73 0.695999 216.029 0.695999H217.565C217.863 0.695999 218.013 0.845332 218.013 1.144V23.928ZM276.332 24.6C276.161 24.6 276.054 24.568 276.012 24.504C275.969 24.4613 275.948 24.376 275.948 24.248V6.872L269.004 24.184C268.961 24.2907 268.908 24.3547 268.844 24.376C268.801 24.3973 268.673 24.408 268.46 24.408H265.9C265.686 24.408 265.548 24.3973 265.484 24.376C265.441 24.3547 265.398 24.2907 265.356 24.184L258.412 6.872V24.248C258.412 24.376 258.39 24.4613 258.348 24.504C258.305 24.568 258.198 24.6 258.028 24.6H255.052C254.796 24.6 254.668 24.4827 254.668 24.248V1.144C254.668 0.845332 254.7 0.663999 254.764 0.599998C254.828 0.514665 255.03 0.471998 255.372 0.471998H259.18C259.329 0.471998 259.414 0.503998 259.436 0.567999C259.478 0.610665 259.532 0.706665 259.596 0.855999L267.18 19.672L274.764 0.855999C274.828 0.706665 274.87 0.610665 274.892 0.567999C274.934 0.503998 275.03 0.471998 275.18 0.471998H278.988C279.329 0.471998 279.532 0.514665 279.596 0.599998C279.66 0.663999 279.692 0.845332 279.692 1.144V24.248C279.692 24.4827 279.564 24.6 279.308 24.6H276.332ZM313.731 24.6C313.582 24.6 313.475 24.5787 313.411 24.536C313.347 24.5147 313.283 24.4293 313.219 24.28L310.915 18.52H300.483L298.179 24.28C298.137 24.4293 298.083 24.5147 298.019 24.536C297.955 24.5787 297.849 24.6 297.699 24.6H294.755C294.371 24.6 294.243 24.4507 294.371 24.152L303.715 0.823999C303.779 0.653332 303.822 0.557332 303.843 0.535999C303.886 0.493332 304.014 0.471998 304.227 0.471998H307.203C307.395 0.471998 307.513 0.493332 307.555 0.535999C307.598 0.557332 307.651 0.653332 307.715 0.823999L317.059 24.152C317.166 24.4507 317.038 24.6 316.675 24.6H313.731ZM301.795 15.16H309.571L305.699 5.304L301.795 15.16ZM337.344 3.832V24.216C337.344 24.472 337.216 24.6 336.96 24.6H334.112C333.856 24.6 333.728 24.472 333.728 24.216V3.832H327.52C327.414 3.832 327.318 3.8 327.232 3.736C327.168 3.65067 327.136 3.544 327.136 3.416V0.855999C327.136 0.749332 327.168 0.663999 327.232 0.599998C327.318 0.514665 327.414 0.471998 327.52 0.471998H343.584C343.691 0.471998 343.776 0.514665 343.84 0.599998C343.926 0.663999 343.968 0.749332 343.968 0.855999V3.416C343.968 3.69333 343.84 3.832 343.584 3.832H337.344ZM358.782 24.6C358.675 24.6 358.579 24.5573 358.494 24.472C358.43 24.408 358.398 24.3227 358.398 24.216V0.855999C358.398 0.749332 358.43 0.663999 358.494 0.599998C358.579 0.514665 358.675 0.471998 358.782 0.471998H361.63C361.736 0.471998 361.822 0.514665 361.886 0.599998C361.971 0.663999 362.014 0.749332 362.014 0.855999V10.456H371.934V0.855999C371.934 0.749332 371.966 0.663999 372.03 0.599998C372.115 0.514665 372.211 0.471998 372.318 0.471998H375.166C375.272 0.471998 375.358 0.514665 375.422 0.599998C375.507 0.663999 375.55 0.749332 375.55 0.855999V24.216C375.55 24.3227 375.507 24.408 375.422 24.472C375.358 24.5573 375.272 24.6 375.166 24.6H372.318C372.062 24.6 371.934 24.472 371.934 24.216V13.816H362.014V24.216C362.014 24.472 361.886 24.6 361.63 24.6H358.782ZM393.744 24.632C393.317 24.632 393.061 24.5893 392.976 24.504C392.89 24.44 392.848 24.1733 392.848 23.704V1.336C392.848 0.909332 392.88 0.663999 392.944 0.599998C393.029 0.514665 393.274 0.471998 393.68 0.471998H405.04C405.274 0.471998 405.413 0.514665 405.456 0.599998C405.498 0.663999 405.52 0.791999 405.52 0.983999V3.352C405.52 3.56533 405.488 3.71467 405.424 3.8C405.36 3.864 405.232 3.896 405.04 3.896H396.368V10.424H404.624C404.944 10.424 405.104 10.5947 405.104 10.936V13.336C405.104 13.6987 404.944 13.88 404.624 13.88H396.368V21.176H405.424C405.722 21.176 405.872 21.3573 405.872 21.72V24.12C405.872 24.4613 405.722 24.632 405.424 24.632H393.744ZM436.533 24.6C436.363 24.6 436.235 24.568 436.149 24.504C436.064 24.44 435.957 24.3013 435.829 24.088L425.781 6.808V24.088C425.781 24.3013 425.749 24.44 425.685 24.504C425.621 24.568 425.483 24.6 425.269 24.6H422.613C422.443 24.6 422.315 24.568 422.229 24.504C422.144 24.44 422.101 24.3013 422.101 24.088V1.016C422.101 0.759998 422.144 0.599998 422.229 0.535999C422.315 0.450666 422.475 0.407999 422.709 0.407999H425.653C425.824 0.407999 425.952 0.439999 426.037 0.504C426.123 0.546666 426.229 0.685332 426.357 0.919998L436.405 18.168V0.919998C436.405 0.706665 436.437 0.567999 436.501 0.504C436.565 0.439999 436.704 0.407999 436.917 0.407999H439.573C439.787 0.407999 439.915 0.439999 439.957 0.504C440.021 0.567999 440.053 0.706665 440.053 0.919998V23.992C440.053 24.248 440.011 24.408 439.925 24.472C439.861 24.5573 439.712 24.6 439.477 24.6H436.533ZM475.527 23.864C475.143 24.056 474.674 24.216 474.119 24.344C473.565 24.4933 472.957 24.6213 472.295 24.728C471.655 24.8347 470.994 24.9093 470.311 24.952C469.65 25.016 469.021 25.048 468.423 25.048C466.653 25.048 465.01 24.7707 463.495 24.216C462.002 23.6613 460.711 22.8507 459.623 21.784C458.535 20.7173 457.682 19.4053 457.063 17.848C456.445 16.2907 456.135 14.52 456.135 12.536C456.135 10.7227 456.423 9.05867 456.999 7.544C457.575 6.008 458.397 4.68533 459.463 3.576C460.53 2.46667 461.821 1.60267 463.335 0.983999C464.85 0.365333 466.557 0.0559998 468.455 0.0559998C469.735 0.0559998 470.877 0.130666 471.879 0.279999C472.882 0.407998 473.831 0.610665 474.727 0.887999C474.962 0.951999 475.101 1.02667 475.143 1.112C475.186 1.176 475.197 1.25067 475.175 1.336L474.791 4.056C474.77 4.20533 474.717 4.312 474.631 4.376C474.546 4.44 474.386 4.42933 474.151 4.344C473.149 4.024 472.199 3.8 471.303 3.672C470.407 3.52267 469.447 3.448 468.423 3.448C467.143 3.448 465.981 3.672 464.935 4.12C463.89 4.54667 462.994 5.16533 462.247 5.976C461.501 6.76533 460.914 7.71467 460.487 8.824C460.082 9.93333 459.879 11.1707 459.879 12.536C459.879 14.008 460.082 15.32 460.487 16.472C460.914 17.6027 461.501 18.5627 462.247 19.352C463.015 20.12 463.922 20.7067 464.967 21.112C466.013 21.496 467.165 21.688 468.423 21.688C469.383 21.688 470.215 21.6453 470.919 21.56C471.623 21.4747 472.146 21.3467 472.487 21.176V14.744H467.207C467.079 14.744 466.973 14.712 466.887 14.648C466.823 14.5627 466.791 14.4667 466.791 14.36V11.8C466.791 11.672 466.834 11.5653 466.919 11.48C467.026 11.3947 467.133 11.352 467.239 11.352H475.431C475.751 11.352 475.954 11.4053 476.039 11.512C476.125 11.6187 476.167 11.832 476.167 12.152V22.712C476.167 23.032 476.103 23.2773 475.975 23.448C475.847 23.6187 475.698 23.7573 475.527 23.864ZM494.531 24.632C494.105 24.632 493.849 24.5893 493.763 24.504C493.678 24.44 493.635 24.1733 493.635 23.704V1.336C493.635 0.909332 493.667 0.663999 493.731 0.599998C493.817 0.514665 494.062 0.471998 494.467 0.471998H505.827C506.062 0.471998 506.201 0.514665 506.243 0.599998C506.286 0.663999 506.307 0.791999 506.307 0.983999V3.352C506.307 3.56533 506.275 3.71467 506.211 3.8C506.147 3.864 506.019 3.896 505.827 3.896H497.155V10.424H505.411C505.731 10.424 505.891 10.5947 505.891 10.936V13.336C505.891 13.6987 505.731 13.88 505.411 13.88H497.155V21.176H506.211C506.51 21.176 506.659 21.3573 506.659 21.72V24.12C506.659 24.4613 506.51 24.632 506.211 24.632H494.531Z" fill="#100f0f"/>
</svg>
