<svg width="255" height="63" viewBox="0 0 255 63" fill="none" xmlns="http://www.w3.org/2000/svg">
<path d="M25.44 24.056C25.376 24.2693 25.2373 24.376 25.024 24.376H22.88C22.6453 24.376 22.5067 24.2693 22.464 24.056L16.48 3.256C15.456 6.73333 14.4427 10.2 13.44 13.656C12.4373 17.0907 11.424 20.5573 10.4 24.056C10.336 24.2693 10.1973 24.376 9.984 24.376H7.776C7.54133 24.376 7.40267 24.2693 7.36 24.056L0.8 1.144C0.757333 1.03733 0.768 0.941332 0.832 0.855999C0.896 0.749332 0.992 0.695999 1.12 0.695999H2.624C2.92267 0.695999 3.11467 0.845332 3.2 1.144L8.96 21.944C9.96267 18.4453 10.9653 15.0107 11.968 11.64C12.9707 8.248 13.9733 4.80267 14.976 1.304C15.0187 1.09067 15.1147 0.941332 15.264 0.855999C15.4133 0.749332 15.584 0.695999 15.776 0.695999H17.44C17.8027 0.695999 18.0373 0.898666 18.144 1.304L24 21.816C24.9813 18.2747 25.952 14.8293 26.912 11.48C27.872 8.13067 28.8533 4.68533 29.856 1.144C29.8987 1.016 29.9733 0.909333 30.08 0.823999C30.1867 0.738666 30.304 0.695999 30.432 0.695999H31.776C31.904 0.695999 32 0.749332 32.064 0.855999C32.128 0.941332 32.1387 1.03733 32.096 1.144L25.44 24.056ZM58.4093 15.992C57.5133 13.7733 56.6493 11.5867 55.8173 9.432C55.0066 7.256 54.1533 5.05867 53.2573 2.84C52.3613 5.05867 51.4759 7.256 50.6013 9.432C49.7479 11.5867 48.8733 13.7733 47.9773 15.992H58.4093ZM63.9773 23.928C64.0839 24.2267 63.9879 24.376 63.6893 24.376H62.1533C62.0253 24.376 61.9079 24.3547 61.8013 24.312C61.7159 24.2693 61.6306 24.1413 61.5453 23.928L59.1773 18.04H47.1453C46.7399 19.0427 46.3453 20.024 45.9613 20.984C45.5773 21.944 45.1933 22.9253 44.8093 23.928C44.7239 24.1413 44.6279 24.2693 44.5213 24.312C44.4359 24.3547 44.3293 24.376 44.2013 24.376H42.6973C42.3986 24.376 42.3026 24.2267 42.4093 23.928L51.8173 1.016C51.9239 0.759998 52.1159 0.631998 52.3933 0.631998H54.3453C54.6226 0.631998 54.8146 0.759998 54.9213 1.016L63.9773 23.928ZM81.1793 23.928C81.1793 24.2267 81.0299 24.376 80.7313 24.376H79.2913C78.9926 24.376 78.8433 24.2267 78.8433 23.928V1.528C78.8433 1.08 78.8753 0.823999 78.9393 0.759998C79.0246 0.674665 79.2913 0.631998 79.7393 0.631998H81.2113C81.4886 0.631998 81.6699 0.663998 81.7553 0.727999C81.8619 0.770666 81.9686 0.887999 82.0753 1.08L94.1393 21.784V1.08C94.1393 0.781331 94.2886 0.631998 94.5873 0.631998H95.9953C96.2939 0.631998 96.4433 0.781331 96.4433 1.08V23.48C96.4433 23.928 96.4006 24.184 96.3153 24.248C96.2513 24.3333 95.9953 24.376 95.5473 24.376H93.5953C93.4246 24.376 93.2966 24.3547 93.2113 24.312C93.1473 24.2693 93.0619 24.1627 92.9553 23.992L81.1793 3.64V23.928ZM131.629 11.576C132.077 11.576 132.333 11.6187 132.397 11.704C132.483 11.768 132.525 12.024 132.525 12.472V22.616C132.525 22.8507 132.451 23.0533 132.301 23.224C132.173 23.3947 132.024 23.5227 131.853 23.608C130.829 23.992 129.752 24.28 128.621 24.472C127.512 24.6853 126.349 24.792 125.133 24.792C123.363 24.792 121.72 24.5147 120.205 23.96C118.712 23.4267 117.421 22.648 116.333 21.624C115.245 20.5787 114.392 19.2987 113.773 17.784C113.176 16.248 112.877 14.4987 112.877 12.536C112.877 10.744 113.155 9.10133 113.709 7.608C114.285 6.11467 115.096 4.824 116.141 3.736C117.208 2.648 118.499 1.80533 120.013 1.208C121.528 0.589332 123.235 0.279999 125.133 0.279999C126.328 0.279999 127.363 0.333332 128.237 0.439999C129.133 0.546665 130.083 0.759998 131.085 1.08C131.405 1.16533 131.533 1.37867 131.469 1.72L131.309 2.904C131.288 3.18133 131.128 3.27733 130.829 3.192C129.869 2.82933 128.952 2.59467 128.077 2.488C127.203 2.36 126.221 2.296 125.133 2.296C123.619 2.296 122.243 2.552 121.005 3.064C119.789 3.55467 118.744 4.248 117.869 5.144C117.016 6.04 116.355 7.11733 115.885 8.376C115.437 9.63467 115.213 11.0213 115.213 12.536C115.213 14.1787 115.459 15.64 115.949 16.92C116.44 18.2 117.123 19.2773 117.997 20.152C118.893 21.0053 119.939 21.656 121.133 22.104C122.349 22.552 123.683 22.776 125.133 22.776C127.501 22.776 129.187 22.488 130.189 21.912V13.592H123.757C123.459 13.592 123.309 13.4427 123.309 13.144V12.024C123.309 11.7253 123.459 11.576 123.757 11.576H131.629ZM164.009 15.992C163.113 13.7733 162.249 11.5867 161.417 9.432C160.607 7.256 159.753 5.05867 158.857 2.84C157.961 5.05867 157.076 7.256 156.201 9.432C155.348 11.5867 154.473 13.7733 153.577 15.992H164.009ZM169.577 23.928C169.684 24.2267 169.588 24.376 169.289 24.376H167.753C167.625 24.376 167.508 24.3547 167.401 24.312C167.316 24.2693 167.231 24.1413 167.145 23.928L164.777 18.04H152.745C152.34 19.0427 151.945 20.024 151.561 20.984C151.177 21.944 150.793 22.9253 150.409 23.928C150.324 24.1413 150.228 24.2693 150.121 24.312C150.036 24.3547 149.929 24.376 149.801 24.376H148.297C147.999 24.376 147.903 24.2267 148.009 23.928L157.417 1.016C157.524 0.759998 157.716 0.631998 157.993 0.631998H159.945C160.223 0.631998 160.415 0.759998 160.521 1.016L169.577 23.928ZM196.539 7.608C196.539 6.712 196.433 5.95467 196.219 5.336C196.027 4.696 195.686 4.184 195.195 3.8C194.726 3.39467 194.107 3.10667 193.339 2.936C192.571 2.76533 191.611 2.68 190.459 2.68H187.163V12.216H190.523C191.398 12.216 192.198 12.1093 192.923 11.896C193.67 11.6827 194.31 11.3733 194.843 10.968C195.377 10.5627 195.793 10.0827 196.091 9.528C196.39 8.952 196.539 8.312 196.539 7.608ZM200.347 23.928C200.39 24.0347 200.39 24.1307 200.347 24.216C200.305 24.3227 200.219 24.376 200.091 24.376H198.427C198.107 24.376 197.873 24.2267 197.723 23.928C196.763 21.9227 195.963 20.2907 195.323 19.032C194.683 17.752 194.182 16.7387 193.819 15.992C193.371 15.1173 193.03 14.4453 192.795 13.976C192.305 14.0827 191.846 14.1467 191.419 14.168C191.014 14.1893 190.491 14.2107 189.851 14.232H187.163V23.928C187.163 24.2267 187.014 24.376 186.715 24.376H185.275C184.977 24.376 184.827 24.2267 184.827 23.928V1.656C184.827 1.42133 184.827 1.24 184.827 1.112C184.849 0.983999 184.891 0.887999 184.955 0.823999C185.019 0.759999 185.115 0.727999 185.243 0.727999C185.371 0.706666 185.553 0.695999 185.787 0.695999H191.835C193.051 0.695999 194.097 0.866666 194.971 1.208C195.867 1.528 196.603 1.98667 197.179 2.584C197.777 3.18133 198.214 3.90667 198.491 4.76C198.79 5.61333 198.939 6.56267 198.939 7.608C198.939 8.248 198.822 8.856 198.587 9.432C198.374 10.008 198.075 10.5413 197.691 11.032C197.307 11.5227 196.859 11.9707 196.347 12.376C195.857 12.76 195.345 13.08 194.811 13.336L200.347 23.928ZM217.981 23.928C217.981 24.2267 217.832 24.376 217.533 24.376H215.997C215.699 24.376 215.549 24.2267 215.549 23.928V1.144C215.549 0.845332 215.699 0.695999 215.997 0.695999H217.533C217.832 0.695999 217.981 0.845332 217.981 1.144V23.928ZM24.544 61.6C24.3733 61.6 24.2667 61.568 24.224 61.504C24.1813 61.4613 24.16 61.376 24.16 61.248V43.872L17.216 61.184C17.1733 61.2907 17.12 61.3547 17.056 61.376C17.0133 61.3973 16.8853 61.408 16.672 61.408H14.112C13.8987 61.408 13.76 61.3973 13.696 61.376C13.6533 61.3547 13.6107 61.2907 13.568 61.184L6.624 43.872V61.248C6.624 61.376 6.60267 61.4613 6.56 61.504C6.51733 61.568 6.41067 61.6 6.24 61.6H3.264C3.008 61.6 2.88 61.4827 2.88 61.248V38.144C2.88 37.8453 2.912 37.664 2.976 37.6C3.04 37.5147 3.24267 37.472 3.584 37.472H7.392C7.54133 37.472 7.62667 37.504 7.648 37.568C7.69067 37.6107 7.744 37.7067 7.808 37.856L15.392 56.672L22.976 37.856C23.04 37.7067 23.0827 37.6107 23.104 37.568C23.1467 37.504 23.2427 37.472 23.392 37.472H27.2C27.5413 37.472 27.744 37.5147 27.808 37.6C27.872 37.664 27.904 37.8453 27.904 38.144V61.248C27.904 61.4827 27.776 61.6 27.52 61.6H24.544ZM61.944 61.6C61.7947 61.6 61.688 61.5787 61.624 61.536C61.56 61.5147 61.496 61.4293 61.432 61.28L59.128 55.52H48.696L46.392 61.28C46.3493 61.4293 46.296 61.5147 46.232 61.536C46.168 61.5787 46.0613 61.6 45.912 61.6H42.968C42.584 61.6 42.456 61.4507 42.584 61.152L51.928 37.824C51.992 37.6533 52.0347 37.5573 52.056 37.536C52.0987 37.4933 52.2267 37.472 52.44 37.472H55.416C55.608 37.472 55.7253 37.4933 55.768 37.536C55.8107 37.5573 55.864 37.6533 55.928 37.824L65.272 61.152C65.3787 61.4507 65.2507 61.6 64.888 61.6H61.944ZM50.008 52.16H57.784L53.912 42.304L50.008 52.16ZM85.5568 40.832V61.216C85.5568 61.472 85.4288 61.6 85.1728 61.6H82.3248C82.0688 61.6 81.9408 61.472 81.9408 61.216V40.832H75.7328C75.6261 40.832 75.5301 40.8 75.4448 40.736C75.3808 40.6507 75.3488 40.544 75.3488 40.416V37.856C75.3488 37.7493 75.3808 37.664 75.4448 37.6C75.5301 37.5147 75.6261 37.472 75.7328 37.472H91.7968C91.9034 37.472 91.9888 37.5147 92.0528 37.6C92.1381 37.664 92.1808 37.7493 92.1808 37.856V40.416C92.1808 40.6933 92.0528 40.832 91.7968 40.832H85.5568ZM106.994 61.6C106.888 61.6 106.792 61.5573 106.706 61.472C106.642 61.408 106.61 61.3227 106.61 61.216V37.856C106.61 37.7493 106.642 37.664 106.706 37.6C106.792 37.5147 106.888 37.472 106.994 37.472H109.842C109.949 37.472 110.034 37.5147 110.098 37.6C110.184 37.664 110.226 37.7493 110.226 37.856V47.456H120.146V37.856C120.146 37.7493 120.178 37.664 120.242 37.6C120.328 37.5147 120.424 37.472 120.53 37.472H123.378C123.485 37.472 123.57 37.5147 123.634 37.6C123.72 37.664 123.762 37.7493 123.762 37.856V61.216C123.762 61.3227 123.72 61.408 123.634 61.472C123.57 61.5573 123.485 61.6 123.378 61.6H120.53C120.274 61.6 120.146 61.472 120.146 61.216V50.816H110.226V61.216C110.226 61.472 110.098 61.6 109.842 61.6H106.994ZM141.956 61.632C141.53 61.632 141.274 61.5893 141.188 61.504C141.103 61.44 141.06 61.1733 141.06 60.704V38.336C141.06 37.9093 141.092 37.664 141.156 37.6C141.242 37.5147 141.487 37.472 141.892 37.472H153.252C153.487 37.472 153.626 37.5147 153.668 37.6C153.711 37.664 153.732 37.792 153.732 37.984V40.352C153.732 40.5653 153.7 40.7147 153.636 40.8C153.572 40.864 153.444 40.896 153.252 40.896H144.58V47.424H152.836C153.156 47.424 153.316 47.5947 153.316 47.936V50.336C153.316 50.6987 153.156 50.88 152.836 50.88H144.58V58.176H153.636C153.935 58.176 154.084 58.3573 154.084 58.72V61.12C154.084 61.4613 153.935 61.632 153.636 61.632H141.956ZM184.746 61.6C184.575 61.6 184.447 61.568 184.362 61.504C184.276 61.44 184.17 61.3013 184.042 61.088L173.994 43.808V61.088C173.994 61.3013 173.962 61.44 173.898 61.504C173.834 61.568 173.695 61.6 173.482 61.6H170.826C170.655 61.6 170.527 61.568 170.442 61.504C170.356 61.44 170.314 61.3013 170.314 61.088V38.016C170.314 37.76 170.356 37.6 170.442 37.536C170.527 37.4507 170.687 37.408 170.922 37.408H173.866C174.036 37.408 174.164 37.44 174.25 37.504C174.335 37.5467 174.442 37.6853 174.57 37.92L184.618 55.168V37.92C184.618 37.7067 184.65 37.568 184.714 37.504C184.778 37.44 184.916 37.408 185.13 37.408H187.786C187.999 37.408 188.127 37.44 188.17 37.504C188.234 37.568 188.266 37.7067 188.266 37.92V60.992C188.266 61.248 188.223 61.408 188.138 61.472C188.074 61.5573 187.924 61.6 187.69 61.6H184.746ZM223.74 60.864C223.356 61.056 222.886 61.216 222.332 61.344C221.777 61.4933 221.169 61.6213 220.508 61.728C219.868 61.8347 219.206 61.9093 218.524 61.952C217.862 62.016 217.233 62.048 216.636 62.048C214.865 62.048 213.222 61.7707 211.708 61.216C210.214 60.6613 208.924 59.8507 207.836 58.784C206.748 57.7173 205.894 56.4053 205.276 54.848C204.657 53.2907 204.348 51.52 204.348 49.536C204.348 47.7227 204.636 46.0587 205.212 44.544C205.788 43.008 206.609 41.6853 207.676 40.576C208.742 39.4667 210.033 38.6027 211.548 37.984C213.062 37.3653 214.769 37.056 216.668 37.056C217.948 37.056 219.089 37.1307 220.092 37.28C221.094 37.408 222.044 37.6107 222.94 37.888C223.174 37.952 223.313 38.0267 223.356 38.112C223.398 38.176 223.409 38.2507 223.388 38.336L223.004 41.056C222.982 41.2053 222.929 41.312 222.844 41.376C222.758 41.44 222.598 41.4293 222.364 41.344C221.361 41.024 220.412 40.8 219.516 40.672C218.62 40.5227 217.66 40.448 216.636 40.448C215.356 40.448 214.193 40.672 213.148 41.12C212.102 41.5467 211.206 42.1653 210.46 42.976C209.713 43.7653 209.126 44.7147 208.7 45.824C208.294 46.9333 208.092 48.1707 208.092 49.536C208.092 51.008 208.294 52.32 208.7 53.472C209.126 54.6027 209.713 55.5627 210.46 56.352C211.228 57.12 212.134 57.7067 213.18 58.112C214.225 58.496 215.377 58.688 216.636 58.688C217.596 58.688 218.428 58.6453 219.132 58.56C219.836 58.4747 220.358 58.3467 220.7 58.176V51.744H215.42C215.292 51.744 215.185 51.712 215.1 51.648C215.036 51.5627 215.004 51.4667 215.004 51.36V48.8C215.004 48.672 215.046 48.5653 215.132 48.48C215.238 48.3947 215.345 48.352 215.452 48.352H223.644C223.964 48.352 224.166 48.4053 224.252 48.512C224.337 48.6187 224.38 48.832 224.38 49.152V59.712C224.38 60.032 224.316 60.2773 224.188 60.448C224.06 60.6187 223.91 60.7573 223.74 60.864ZM242.744 61.632C242.317 61.632 242.061 61.5893 241.976 61.504C241.89 61.44 241.848 61.1733 241.848 60.704V38.336C241.848 37.9093 241.88 37.664 241.944 37.6C242.029 37.5147 242.274 37.472 242.68 37.472H254.04C254.274 37.472 254.413 37.5147 254.456 37.6C254.498 37.664 254.52 37.792 254.52 37.984V40.352C254.52 40.5653 254.488 40.7147 254.424 40.8C254.36 40.864 254.232 40.896 254.04 40.896H245.368V47.424H253.624C253.944 47.424 254.104 47.5947 254.104 47.936V50.336C254.104 50.6987 253.944 50.88 253.624 50.88H245.368V58.176H254.424C254.722 58.176 254.872 58.3573 254.872 58.72V61.12C254.872 61.4613 254.722 61.632 254.424 61.632H242.744Z" fill="#3A3A3C"/>
</svg>
